<svg xmlns="http://www.w3.org/2000/svg" viewBox="0 0 1024 1024" version="1.1"><path d="M570.6 806.3h62l20.4 69.8 111.1-69.8h131V230.2h-324.5v576.1zM636.5 292.7h192.6v451h-73.9l-73.8 46.4-13.4-46.3-31.5-0.1V292.7z m-120.7 201H377.4a2999.5 2999.5 0 0 0 5.8-194.6h135.3s5.2-59.7-22.7-59.1H261.8c9.2-34.7 20.8-70.6 34.7-107.7 0 0-63.7 0-85.3 57.1-9 23.6-35 114.2-81.2 206.8 15.6-1.7 67.1-3.1 97.5-58.8 5.6-15.6 6.7-17.6 13.6-38.5h76.4c0 27.8-3.2 177.1-4.4 194.5h-138.2c-31.1 0-41.2 62.5-41.2 62.5h173.5C295.3 688.3 232.8 799.6 119.5 887.5c54.2 15.5 108.2-2.4 134.9-26.2 0 0 60.8-55.3 94.1-183.4l142.8 171.9s20.9-71.2-3.3-105.9c-20.1-23.6-74.2-87.6-97.3-110.7l-38.7 30.7c11.5-37 18.5-73 20.8-107.7h163.1s-0.2-62.5-20.1-62.5z" p-id="16737"></path></svg>